<?xml version="1.0" encoding="UTF-8" standalone="no"?>
<!-- Created with Inkscape (http://www.inkscape.org/) -->

<svg
   xmlns:dc="http://purl.org/dc/elements/1.1/"
   xmlns:cc="http://creativecommons.org/ns#"
   xmlns:rdf="http://www.w3.org/1999/02/22-rdf-syntax-ns#"
   xmlns:svg="http://www.w3.org/2000/svg"
   xmlns="http://www.w3.org/2000/svg"
   xmlns:sodipodi="http://sodipodi.sourceforge.net/DTD/sodipodi-0.dtd"
   xmlns:inkscape="http://www.inkscape.org/namespaces/inkscape"
   width="101.30869"
   height="50"
   viewBox="0 0 26.804592 13.229167"
   version="1.1"
   id="svg1100"
   inkscape:version="0.92.2 2405546, 2018-03-11"
   sodipodi:docname="ch-logo.svg">
  <defs
     id="defs1094" />
  <sodipodi:namedview
     id="base"
     pagecolor="#ffffff"
     bordercolor="#666666"
     borderopacity="1.0"
     inkscape:pageopacity="0.0"
     inkscape:pageshadow="2"
     inkscape:zoom="7.9195959"
     inkscape:cx="29.278918"
     inkscape:cy="-12.363602"
     inkscape:document-units="px"
     inkscape:current-layer="g2362"
     showgrid="false"
     fit-margin-top="0"
     fit-margin-left="0"
     fit-margin-right="0"
     fit-margin-bottom="0"
     units="px"
     inkscape:window-width="1920"
     inkscape:window-height="1053"
     inkscape:window-x="0"
     inkscape:window-y="27"
     inkscape:window-maximized="1" />
  <metadata
     id="metadata1097">
    <rdf:RDF>
      <cc:Work
         rdf:about="">
        <dc:format>image/svg+xml</dc:format>
        <dc:type
           rdf:resource="http://purl.org/dc/dcmitype/StillImage" />
        <dc:title></dc:title>
      </cc:Work>
    </rdf:RDF>
  </metadata>
  <g
     inkscape:label="Layer 1"
     inkscape:groupmode="layer"
     id="layer1"
     transform="translate(-84.710573,-117.82574)">
    <g
       transform="matrix(0.60419138,0,0,0.60419138,-52.166878,-26.931481)"
       id="g2362">
      <g
         id="g2560">
        <path
           style="fill:#6f42c1;fill-opacity:1;stroke-width:0.07337767"
           d="m 236.7947,261.3496 c 0,-0.0721 0.13405,-0.57575 0.29791,-1.11899 0.40624,-1.34688 0.55455,-2.35778 0.45174,-3.07897 -0.13609,-0.95453 -0.42541,-1.66709 -1.99621,-4.91631 -2.04367,-4.22737 -2.6529,-5.77276 -2.86271,-7.2617 -0.132,-0.93664 0.16048,-1.81147 0.96995,-2.90111 0.79494,-1.07006 2.59704,-2.66289 2.79211,-2.4678 0.0428,0.0427 0.0238,0.39825 -0.0502,0.9404 -0.13256,0.97091 -0.15899,2.65218 -0.0505,3.21508 0.11841,0.61478 0.43098,1.39379 1.23655,3.08188 1.94416,4.07399 2.23292,4.6922 2.60961,5.58693 0.74511,1.76975 1.14419,3.2747 1.03549,3.90488 -0.0254,0.14706 -0.15878,0.49986 -0.29648,0.78394 -0.81735,1.68629 -4.13718,5.08204 -4.13718,4.23177 z m -6.94718,-2.26082 c -0.0266,-0.0695 0.008,-0.32746 0.0764,-0.57318 0.0687,-0.2457 0.19463,-0.69437 0.27979,-0.99707 0.11213,-0.39846 0.15641,-0.77308 0.16052,-1.35748 0.005,-0.74977 -0.0118,-0.85151 -0.24041,-1.43089 -0.13533,-0.34302 -0.65793,-1.48223 -1.16132,-2.53153 -1.67922,-3.50029 -2.20527,-4.81024 -2.37806,-5.92164 -0.11635,-0.74841 0.0266,-1.29567 0.54573,-2.09055 0.61488,-0.94131 2.21509,-2.43834 2.40422,-2.2492 0.0471,0.047 0.0292,0.42619 -0.0515,1.09421 -0.10294,0.85253 -0.10964,1.14693 -0.0403,1.77301 0.10009,0.90412 0.22377,1.22061 1.56562,4.00648 1.818,3.77435 2.46214,5.54465 2.29632,6.31096 -0.0822,0.37975 -0.43521,1.01742 -0.92555,1.67176 -0.5219,0.69649 -1.88746,2.08826 -2.24549,2.28863 -0.22347,0.12497 -0.24034,0.12545 -0.28599,0.007 z m 14.01504,-1.7e-4 c -0.0259,-0.0677 0.0547,-0.47319 0.17921,-0.90145 0.33258,-1.14407 0.4092,-1.62676 0.36661,-2.30953 -0.0477,-0.76351 -0.24954,-1.28171 -1.56194,-4.00914 -1.55067,-3.22255 -2.06585,-4.51672 -2.23626,-5.61765 -0.13798,-0.89149 0.11031,-1.55159 1.00365,-2.66813 0.64323,-0.80392 1.84068,-1.80896 1.98424,-1.66541 0.0214,0.0212 -0.002,0.41186 -0.0531,0.8676 -0.13204,1.18712 -0.0684,2.53987 0.14595,3.10332 0.0921,0.24214 0.68773,1.52992 1.32358,2.86174 1.83598,3.8455 2.28102,5.0029 2.29954,5.98028 0.0127,0.66382 -0.14762,1.03936 -0.84811,1.98836 -0.53161,0.72018 -1.96939,2.1909 -2.31637,2.36942 -0.22411,0.11535 -0.24288,0.11535 -0.28693,3.4e-4 z"
           id="path4631-7"
           inkscape:connector-curvature="0" />
        <g
           id="text1019"
           style="font-style:normal;font-weight:normal;font-size:18.42058754px;line-height:1.25;font-family:sans-serif;letter-spacing:0px;word-spacing:0px;fill:#444444;fill-opacity:1;stroke:none;stroke-width:0.63493633;stroke-linecap:butt;stroke-miterlimit:4;stroke-dasharray:none;stroke-opacity:1;paint-order:markers stroke fill"
           aria-label="sh">
          <path
             inkscape:connector-curvature="0"
             id="path2543"
             style="font-style:normal;font-variant:normal;font-weight:600;font-stretch:normal;font-size:14.01321983px;font-family:Ubuntu;-inkscape-font-specification:'Ubuntu Semi-Bold';text-align:end;letter-spacing:-0.58242446px;text-anchor:end;fill:#444444;fill-opacity:1;stroke:none;stroke-width:0.63493633;stroke-linecap:butt;stroke-miterlimit:4;stroke-dasharray:none;stroke-opacity:1;paint-order:markers stroke fill"
             d="m 249.69877,250.03054 q 0.67263,0 0.98093,-0.15414 0.30829,-0.16816 0.30829,-0.56053 0,-0.36434 -0.33632,-0.60257 -0.32231,-0.23822 -1.07902,-0.51849 -0.46244,-0.16816 -0.85481,-0.35033 -0.37835,-0.19618 -0.65862,-0.44842 -0.28026,-0.25224 -0.44842,-0.60257 -0.15415,-0.36434 -0.15415,-0.88283 0,-1.00895 0.74271,-1.5835 0.7427,-0.58855 2.0179,-0.58855 0.64461,0 1.23316,0.12612 0.58856,0.1121 0.88284,0.22421 l -0.3083,1.3733 q -0.28026,-0.12612 -0.71467,-0.22422 -0.43441,-0.1121 -1.00895,-0.1121 -0.51849,0 -0.84079,0.18217 -0.32231,0.16816 -0.32231,0.5325 0,0.18217 0.056,0.32231 0.0701,0.14013 0.22422,0.26625 0.15414,0.1121 0.40638,0.23822 0.25224,0.11211 0.61658,0.23823 0.60257,0.22421 1.02297,0.44842 0.42039,0.2102 0.68664,0.49046 0.28027,0.26625 0.40639,0.61658 0.12612,0.35033 0.12612,0.8408 0,1.05099 -0.78474,1.5975 -0.77073,0.53251 -2.21409,0.53251 -0.96692,0 -1.55547,-0.16816 -0.58856,-0.15415 -0.82678,-0.25224 l 0.29428,-1.41534 q 0.37835,0.15415 0.89684,0.29428 0.53251,0.14013 1.20514,0.14013 z" />
          <path
             sodipodi:nodetypes="cccccscccscccscccssccc"
             inkscape:connector-curvature="0"
             id="path2545"
             style="font-style:normal;font-variant:normal;font-weight:600;font-stretch:normal;font-size:14.01321983px;font-family:Ubuntu;-inkscape-font-specification:'Ubuntu Semi-Bold';text-align:end;letter-spacing:-0.58242446px;text-anchor:end;fill:#444444;fill-opacity:1;stroke:none;stroke-width:0.63493633;stroke-linecap:butt;stroke-miterlimit:4;stroke-dasharray:none;stroke-opacity:1;paint-order:markers stroke fill"
             d="M 253.68509,251.24969 V 240.6557 l 1.6956,-0.28026 v 3.62942 c 0.18685,-0.0654 0.40172,-0.12145 0.64461,-0.16816 0.25224,-0.0467 0.49981,-0.0701 0.7427,-0.0701 0.58855,0 1.07435,0.0841 1.45738,0.25223 0.39237,0.15882 0.70533,0.3877 0.93888,0.68665 0.23355,0.28961 0.39704,0.63994 0.49046,1.05099 0.10277,0.41105 0.15415,0.86882 0.15415,1.3733 v 4.11988 c -0.51903,-0.68882 -1.17304,-1.17895 -1.6956,-1.20221 v 0 -2.65142 c 0,-0.39237 -0.028,-0.72402 -0.0841,-0.99494 -0.0467,-0.28027 -0.13081,-0.50448 -0.25224,-0.67263 -0.11211,-0.1775 -0.26625,-0.30362 -0.46243,-0.37836 -0.19619,-0.0841 -0.43908,-0.12612 -0.72869,-0.12612 -0.22421,0 -0.4531,0.0234 -0.68665,0.0701 -0.23355,0.0467 -0.40638,0.0888 -0.51849,0.12612 v 4.58815 c -0.65729,0.14626 -1.27211,0.64217 -1.69558,1.24135 z" />
        </g>
        <g
           id="text2541"
           style="font-style:normal;font-weight:normal;font-size:18.42058754px;line-height:1.25;font-family:sans-serif;letter-spacing:0px;word-spacing:0px;fill:#444444;fill-opacity:1;stroke:none;stroke-width:0.63556021;stroke-linecap:butt;stroke-miterlimit:4;stroke-dasharray:none;stroke-opacity:0;paint-order:markers stroke fill"
           aria-label="ow">
          <path
             inkscape:connector-curvature="0"
             id="path2548"
             style="font-style:normal;font-variant:normal;font-weight:600;font-stretch:normal;font-size:14.01321983px;font-family:Ubuntu;-inkscape-font-specification:'Ubuntu Semi-Bold';text-align:end;letter-spacing:-0.58242446px;text-anchor:end;fill:#444444;fill-opacity:1;stroke:none;stroke-width:0.63556021;stroke-linecap:butt;stroke-miterlimit:4;stroke-dasharray:none;stroke-opacity:0;paint-order:markers stroke fill"
             d="m 260.26963,254.30009 q 0,0.86882 -0.25223,1.5835 -0.25224,0.71467 -0.71468,1.21915 -0.46244,0.50447 -1.12106,0.78474 -0.6446,0.28026 -1.42935,0.28026 -0.78474,0 -1.42934,-0.28026 -0.64461,-0.28027 -1.10705,-0.78474 -0.46243,-0.50448 -0.72869,-1.21915 -0.25223,-0.71468 -0.25223,-1.5835 0,-0.86882 0.25223,-1.56948 0.26626,-0.71467 0.72869,-1.21915 0.47645,-0.50447 1.12106,-0.77072 0.64461,-0.28027 1.41533,-0.28027 0.77073,0 1.41534,0.28027 0.65862,0.26625 1.12106,0.77072 0.46243,0.50448 0.71467,1.21915 0.26625,0.70066 0.26625,1.56948 z m -1.73764,0 q 0,-1.09303 -0.47645,-1.72362 -0.46243,-0.64461 -1.30323,-0.64461 -0.84079,0 -1.31724,0.64461 -0.46243,0.63059 -0.46243,1.72362 0,1.10705 0.46243,1.75166 0.47645,0.6446 1.31724,0.6446 0.8408,0 1.30323,-0.6446 0.47645,-0.64461 0.47645,-1.75166 z" />
          <path
             inkscape:connector-curvature="0"
             id="path2550"
             style="font-style:normal;font-variant:normal;font-weight:600;font-stretch:normal;font-size:14.01321983px;font-family:Ubuntu;-inkscape-font-specification:'Ubuntu Semi-Bold';text-align:end;letter-spacing:-0.58242446px;text-anchor:end;fill:#444444;fill-opacity:1;stroke:none;stroke-width:0.63556021;stroke-linecap:butt;stroke-miterlimit:4;stroke-dasharray:none;stroke-opacity:0;paint-order:markers stroke fill"
             d="m 265.64195,253.36121 q -0.3223,1.23316 -0.70066,2.41027 -0.36434,1.1631 -0.72869,2.20008 h -1.38731 q -0.28026,-0.64461 -0.58855,-1.47139 -0.30829,-0.82678 -0.61658,-1.76567 -0.30829,-0.93888 -0.61659,-1.97586 -0.30829,-1.03698 -0.60256,-2.116 h 1.79369 q 0.12612,0.58856 0.29428,1.27521 0.16815,0.67263 0.35033,1.38731 0.18217,0.70066 0.37835,1.37329 0.19619,0.67264 0.39237,1.23316 0.2102,-0.6446 0.40639,-1.33125 0.2102,-0.68665 0.39237,-1.3733 0.18217,-0.68664 0.33631,-1.33125 0.16816,-0.65862 0.29428,-1.23317 h 1.30323 q 0.12612,0.57455 0.28027,1.23317 0.15414,0.64461 0.3223,1.33125 0.18217,0.68665 0.37836,1.3733 0.2102,0.68665 0.42039,1.33125 0.18218,-0.56052 0.37836,-1.23316 0.19619,-0.67263 0.37836,-1.37329 0.19618,-0.71468 0.36434,-1.38731 0.16816,-0.68665 0.29428,-1.27521 h 1.75165 q -0.29428,1.07902 -0.60257,2.116 -0.30829,1.03698 -0.61658,1.97586 -0.30829,0.93889 -0.61658,1.76567 -0.30829,0.82678 -0.60257,1.47139 h -1.37329 q -0.36435,-1.03698 -0.75672,-2.20008 -0.37836,-1.17711 -0.70066,-2.41027 z" />
        </g>
      </g>
    </g>
  </g>
</svg>
